<svg width="178" height="38" viewBox="0 0 178 38" fill="none" xmlns="http://www.w3.org/2000/svg">
<path d="M3.666 30C3.40123 30 3.1772 29.9185 2.9939 29.7556C2.83097 29.5723 2.7495 29.3483 2.7495 29.0835V14.2056C2.7495 13.9205 2.83097 13.6965 2.9939 13.5335C3.1772 13.3706 3.40123 13.2891 3.666 13.2891C3.95113 13.2891 4.17517 13.3706 4.3381 13.5335C4.50103 13.6965 4.5825 13.9205 4.5825 14.2056V15.3971C5.15277 14.6639 5.84523 14.0936 6.6599 13.6863C7.49493 13.279 8.40125 13.0753 9.37885 13.0753C10.5805 13.0753 11.6497 13.3706 12.5866 13.9612C13.5235 14.5315 14.2567 15.3258 14.7862 16.3441C15.3361 15.3258 16.0999 14.5315 17.0775 13.9612C18.0551 13.3706 19.1549 13.0753 20.3769 13.0753C21.6192 13.0753 22.7088 13.3808 23.6457 13.9918C24.5826 14.6028 25.3158 15.448 25.8453 16.5274C26.3952 17.6069 26.6702 18.8492 26.6702 20.2546V29.0835C26.6702 29.3483 26.5887 29.5723 26.4258 29.7556C26.2628 29.9185 26.0388 30 25.7537 30C25.4889 30 25.2649 29.9185 25.0816 29.7556C24.9186 29.5723 24.8372 29.3483 24.8372 29.0835V20.2546C24.8372 18.6863 24.4196 17.4032 23.5846 16.4052C22.7699 15.4073 21.7007 14.9083 20.3769 14.9083C18.9716 14.9083 17.8208 15.3767 16.9247 16.3136C16.0489 17.2301 15.6314 18.4725 15.6721 20.0407C15.6721 20.1018 15.6721 20.1731 15.6721 20.2546V29.0835C15.6721 29.3483 15.5907 29.5723 15.4277 29.7556C15.2648 29.9185 15.0408 30 14.7556 30C14.4909 30 14.2669 29.9185 14.0836 29.7556C13.9206 29.5723 13.8391 29.3483 13.8391 29.0835V20.2546C13.8391 18.6863 13.4216 17.4032 12.5866 16.4052C11.7719 15.4073 10.7027 14.9083 9.37885 14.9083C7.97355 14.9083 6.82283 15.3564 5.9267 16.2525C5.03057 17.1486 4.5825 18.3095 4.5825 19.7352V29.0835C4.5825 29.3483 4.50103 29.5723 4.3381 29.7556C4.17517 29.9185 3.95113 30 3.666 30ZM39.2606 30.1528C37.6516 30.1528 36.2158 29.7963 34.953 29.0835C33.7107 28.3503 32.7331 27.3421 32.0202 26.059C31.3074 24.776 30.951 23.3096 30.951 21.6599C30.951 19.9898 31.287 18.5234 31.9591 17.2606C32.6312 15.9775 33.5579 14.9694 34.7392 14.2362C35.9204 13.503 37.2748 13.1364 38.8023 13.1364C40.3095 13.1364 41.6435 13.4928 42.8044 14.2056C43.9653 14.8981 44.8716 15.8655 45.5233 17.1079C46.1751 18.3299 46.5009 19.7454 46.5009 21.3543C46.5009 21.6191 46.4195 21.833 46.2565 21.9959C46.0936 22.1385 45.8797 22.2097 45.615 22.2097H32.8145C32.8756 23.4317 33.1913 24.5112 33.7616 25.448C34.3318 26.3849 35.0854 27.1181 36.0223 27.6476C36.9795 28.1772 38.0589 28.4419 39.2606 28.4419C40.0549 28.4419 40.8492 28.3096 41.6435 28.0448C42.4581 27.7597 43.0997 27.3931 43.5681 26.945C43.7311 26.7821 43.9245 26.7006 44.1486 26.7006C44.393 26.6802 44.5966 26.7413 44.7596 26.8839C44.9836 27.0672 45.0956 27.2709 45.0956 27.4949C45.116 27.7189 45.0243 27.9226 44.8207 28.1059C44.1689 28.6965 43.3135 29.1853 42.2545 29.5723C41.2158 29.9593 40.2178 30.1528 39.2606 30.1528ZM38.8023 14.8472C37.7433 14.8472 36.786 15.0916 35.9306 15.5804C35.0752 16.0692 34.3726 16.7515 33.8227 17.6272C33.2931 18.4826 32.9673 19.4806 32.8451 20.6211H44.729C44.5865 18.9103 43.9755 17.5254 42.896 16.4663C41.8166 15.3869 40.452 14.8472 38.8023 14.8472ZM51.4004 30C51.1356 30 50.9116 29.9185 50.7283 29.7556C50.5653 29.5723 50.4839 29.3483 50.4839 29.0835V14.2056C50.4839 13.9205 50.5653 13.6965 50.7283 13.5335C50.9116 13.3706 51.1356 13.2891 51.4004 13.2891C51.6855 13.2891 51.9095 13.3706 52.0725 13.5335C52.2354 13.6965 52.3169 13.9205 52.3169 14.2056V15.7942C52.989 14.9592 53.824 14.2973 54.822 13.8085C55.8403 13.3197 56.9401 13.0753 58.1214 13.0753C59.5878 13.0753 60.9014 13.3808 62.0623 13.9918C63.2436 14.5824 64.1703 15.4582 64.8424 16.6191C65.5145 17.7596 65.8505 19.1751 65.8505 20.8655V29.0835C65.8505 29.3483 65.7589 29.5723 65.5756 29.7556C65.4126 29.9185 65.1988 30 64.934 30C64.6693 30 64.4452 29.9185 64.2619 29.7556C64.099 29.5723 64.0175 29.3483 64.0175 29.0835V20.8655C64.0175 19.5213 63.7528 18.4114 63.2232 17.5356C62.7141 16.6598 62.0114 16.0081 61.1153 15.5804C60.2395 15.1323 59.2415 14.9083 58.1214 14.9083C57.0216 14.9083 56.0338 15.1221 55.158 15.5498C54.2823 15.9572 53.5898 16.5274 53.0806 17.2606C52.5715 17.9938 52.3169 18.8187 52.3169 19.7352V29.0835C52.3169 29.3483 52.2354 29.5723 52.0725 29.7556C51.9095 29.9185 51.6855 30 51.4004 30ZM76.7218 30.1833C75.6627 30.1833 74.5527 29.9898 73.3918 29.6029C72.2309 29.2159 71.2635 28.5641 70.4896 27.6476C70.3267 27.444 70.2554 27.2301 70.2757 27.0061C70.3165 26.7617 70.4489 26.558 70.6729 26.3951C70.8766 26.2525 71.0904 26.2016 71.3144 26.2423C71.5588 26.2831 71.7523 26.3951 71.8949 26.5784C72.4855 27.2709 73.1984 27.7597 74.0334 28.0448C74.8888 28.3096 75.8155 28.4419 76.8134 28.4419C78.5242 28.4419 79.7361 28.1364 80.4489 27.5255C81.1617 26.9144 81.5181 26.2016 81.5181 25.3869C81.5181 23.778 79.9601 22.7495 76.844 22.3014C74.8073 22.0163 73.3002 21.4664 72.3226 20.6517C71.345 19.837 70.8562 18.89 70.8562 17.8105C70.8562 16.283 71.4061 15.1221 72.5059 14.3279C73.6261 13.5132 75.0415 13.1058 76.7523 13.1058C78.1373 13.1058 79.3084 13.3604 80.2656 13.8696C81.2228 14.3584 81.9968 15.0203 82.5874 15.8553C82.7503 16.059 82.8012 16.2831 82.7401 16.5274C82.6994 16.7515 82.5467 16.9348 82.2819 17.0774C82.0782 17.1792 81.8644 17.2097 81.6403 17.169C81.4163 17.1283 81.2228 17.0061 81.0599 16.8024C80.0212 15.4786 78.565 14.8167 76.6912 14.8167C75.4081 14.8167 74.4102 15.0916 73.6973 15.6415C72.9845 16.1914 72.6281 16.8533 72.6281 17.6272C72.6281 18.4215 72.9743 19.0733 73.6668 19.5824C74.3593 20.0713 75.5405 20.4379 77.2106 20.6823C78.7381 20.8859 79.9397 21.2321 80.8155 21.7209C81.7116 22.2097 82.343 22.78 82.7096 23.4318C83.0966 24.0631 83.29 24.7454 83.29 25.4786C83.29 26.4358 82.9845 27.2709 82.3735 27.9837C81.7625 28.6965 80.9581 29.2464 79.9601 29.6334C78.9621 30 77.8827 30.1833 76.7218 30.1833ZM94.2615 30C93.1414 29.9796 92.1434 29.7251 91.2676 29.2363C90.3919 28.7271 89.7096 28.0346 89.2208 27.1589C88.732 26.2627 88.4876 25.2546 88.4876 24.1344V15.5498H86.1047C85.8603 15.5498 85.6566 15.4786 85.4937 15.336C85.3511 15.1731 85.2798 14.9694 85.2798 14.725C85.2798 14.4806 85.3511 14.2871 85.4937 14.1445C85.6566 13.9816 85.8603 13.9002 86.1047 13.9002H88.4876V8.9205C88.4876 8.63537 88.5691 8.41133 88.732 8.2484C88.9153 8.0651 89.1393 7.97345 89.4041 7.97345C89.6892 7.97345 89.9133 8.0651 90.0762 8.2484C90.2595 8.41133 90.3511 8.63537 90.3511 8.9205V13.9002H94.3837C94.6281 13.9002 94.8216 13.9816 94.9642 14.1445C95.1271 14.2871 95.2086 14.4806 95.2086 14.725C95.2086 14.9694 95.1271 15.1731 94.9642 15.336C94.8216 15.4786 94.6281 15.5498 94.3837 15.5498H90.3511V24.1344C90.3511 25.3157 90.7177 26.2831 91.4509 27.0366C92.1841 27.7698 93.1312 28.1364 94.2921 28.1364H94.9642C95.2493 28.1364 95.4734 28.2281 95.6363 28.4114C95.8196 28.5743 95.9112 28.7984 95.9112 29.0835C95.9112 29.3483 95.8196 29.5723 95.6363 29.7556C95.4734 29.9185 95.2493 30 94.9642 30H94.2615Z" fill="#4D203E"/>
<path d="M102.137 30C101.635 30 101.214 29.8291 100.872 29.4872C100.53 29.1453 100.359 28.7236 100.359 28.2221V5.07549C100.359 4.55124 100.53 4.12957 100.872 3.81046C101.214 3.46856 101.635 3.29761 102.137 3.29761H108.291C110.001 3.29761 111.516 3.6623 112.838 4.39169C114.16 5.09828 115.186 6.0784 115.915 7.33203C116.668 8.58566 117.044 10.0444 117.044 11.7083C117.044 13.3495 116.633 14.7968 115.813 16.0505C114.992 17.2813 113.875 18.2158 112.462 18.8541L117.693 27.2648C118.104 27.9258 118.161 28.5526 117.864 29.1453C117.568 29.7151 117.055 30 116.326 30C115.665 30 115.152 29.7151 114.787 29.1453L108.907 19.7088C108.701 19.7088 108.496 19.7088 108.291 19.7088H103.915V28.2221C103.915 28.7236 103.744 29.1453 103.402 29.4872C103.083 29.8291 102.661 30 102.137 30ZM103.915 16.4266H108.291C109.841 16.4266 111.117 15.9935 112.12 15.1273C113.123 14.2384 113.625 13.0987 113.625 11.7083C113.625 10.204 113.123 8.97315 112.12 8.01583C111.117 7.05851 109.841 6.57985 108.291 6.57985H103.915V16.4266ZM133.142 30.547C130.953 30.547 129.016 30.1482 127.329 29.3504C125.643 28.5298 124.321 27.4016 123.363 25.9656C122.429 24.5296 121.961 22.8885 121.961 21.0422V5.07549C121.961 4.55124 122.132 4.12957 122.474 3.81046C122.816 3.46856 123.238 3.29761 123.739 3.29761C124.264 3.29761 124.685 3.46856 125.004 3.81046C125.346 4.12957 125.517 4.55124 125.517 5.07549V21.0422C125.517 22.2731 125.836 23.3671 126.475 24.3245C127.136 25.259 128.036 25.9998 129.176 26.5468C130.338 27.0711 131.66 27.3332 133.142 27.3332C134.578 27.3332 135.843 27.0711 136.937 26.5468C138.054 25.9998 138.92 25.259 139.535 24.3245C140.173 23.3671 140.492 22.2731 140.492 21.0422V5.07549C140.492 4.55124 140.663 4.12957 141.005 3.81046C141.347 3.46856 141.769 3.29761 142.27 3.29761C142.795 3.29761 143.216 3.46856 143.535 3.81046C143.854 4.12957 144.014 4.55124 144.014 5.07549V21.0422C144.014 22.8885 143.547 24.5296 142.612 25.9656C141.7 27.4016 140.424 28.5298 138.783 29.3504C137.142 30.1482 135.261 30.547 133.142 30.547ZM148.748 30C148.11 30 147.619 29.7265 147.278 29.1794C146.936 28.6324 146.901 28.0512 147.175 27.4358L156.782 4.49426C157.124 3.69649 157.683 3.29761 158.458 3.29761C159.278 3.29761 159.837 3.69649 160.133 4.49426L169.775 27.5041C170.025 28.1423 169.98 28.7236 169.638 29.2478C169.319 29.7493 168.829 30 168.168 30C167.826 30 167.495 29.9088 167.176 29.7265C166.88 29.5213 166.663 29.2478 166.527 28.9059L164.612 24.1193H152.338L150.389 28.9059C150.229 29.2706 149.99 29.5441 149.671 29.7265C149.375 29.9088 149.067 30 148.748 30ZM153.534 21.179H163.415L158.526 9.00734L153.534 21.179Z" fill="#E72A60"/>
<path d="M176.9 24.53L175.61 21.85L174.23 19L172.86 21.85L171.56 24.53C171.196 25.0674 171.001 25.7011 171 26.35C171 27.2066 171.34 28.0282 171.946 28.634C172.552 29.2397 173.373 29.58 174.23 29.58C175.087 29.58 175.908 29.2397 176.514 28.634C177.12 28.0282 177.46 27.2066 177.46 26.35C177.459 25.7011 177.264 25.0674 176.9 24.53Z" fill="#E72A60"/>
</svg>
