<svg width="239" height="82" viewBox="0 0 239 82" fill="none" xmlns="http://www.w3.org/2000/svg">
<path d="M30.0781 65V51.0742C30.0781 49.0039 29.6745 47.4935 28.8672 46.543C28.0599 45.5924 26.8229 45.1172 25.1562 45.1172C22.9818 45.1172 21.3737 45.7161 20.332 46.9141C19.2904 48.112 18.7695 49.9935 18.7695 52.5586V65H16.7969V50.4883C16.7969 46.9076 15.1562 45.1172 11.875 45.1172C9.64844 45.1172 8.02734 45.7682 7.01172 47.0703C5.99609 48.3594 5.48828 50.4297 5.48828 53.2812V65H3.55469V43.7695H5.15625L5.56641 46.6797H5.68359C6.26953 45.625 7.10286 44.8112 8.18359 44.2383C9.26432 43.6523 10.4557 43.3594 11.7578 43.3594C15.1042 43.3594 17.2526 44.6159 18.2031 47.1289H18.2812C18.9714 45.918 19.8958 44.987 21.0547 44.3359C22.2266 43.6849 23.5547 43.3594 25.0391 43.3594C27.3568 43.3594 29.0951 43.9779 30.2539 45.2148C31.4128 46.4518 31.9922 48.418 31.9922 51.1133V65H30.0781ZM47.4414 65.3906C44.3555 65.3906 41.9466 64.4401 40.2148 62.5391C38.4961 60.638 37.6367 57.9753 37.6367 54.5508C37.6367 51.1654 38.4701 48.457 40.1367 46.4258C41.8034 44.3815 44.0495 43.3594 46.875 43.3594C49.375 43.3594 51.3477 44.2318 52.793 45.9766C54.2383 47.7214 54.9609 50.0911 54.9609 53.0859V54.6484H39.668C39.694 57.5651 40.3711 59.7917 41.6992 61.3281C43.0404 62.8646 44.9544 63.6328 47.4414 63.6328C48.6523 63.6328 49.7135 63.5482 50.625 63.3789C51.5495 63.2096 52.7148 62.8451 54.1211 62.2852V64.043C52.9232 64.5638 51.8164 64.9154 50.8008 65.0977C49.7852 65.293 48.6654 65.3906 47.4414 65.3906ZM46.875 45.0781C44.8307 45.0781 43.1901 45.7552 41.9531 47.1094C40.7161 48.4505 39.9935 50.3906 39.7852 52.9297H52.9102C52.9102 50.4688 52.3763 48.5482 51.3086 47.168C50.2409 45.7747 48.763 45.0781 46.875 45.0781ZM75.625 65V51.2305C75.625 49.0951 75.1758 47.5456 74.2773 46.582C73.3789 45.6055 71.9857 45.1172 70.0977 45.1172C67.5586 45.1172 65.6966 45.7617 64.5117 47.0508C63.3398 48.3268 62.7539 50.4036 62.7539 53.2812V65H60.8203V43.7695H62.4609L62.832 46.6797H62.9492C64.3294 44.4661 66.7839 43.3594 70.3125 43.3594C75.1302 43.3594 77.5391 45.944 77.5391 51.1133V65H75.625ZM97.5781 59.4727C97.5781 61.3737 96.8555 62.8385 95.4102 63.8672C93.9648 64.8828 91.9141 65.3906 89.2578 65.3906C86.4193 65.3906 84.1667 64.9544 82.5 64.082V61.9922C84.6354 63.0599 86.888 63.5938 89.2578 63.5938C91.3542 63.5938 92.9427 63.2487 94.0234 62.5586C95.1172 61.8555 95.6641 60.9245 95.6641 59.7656C95.6641 58.6979 95.2279 57.7995 94.3555 57.0703C93.4961 56.3411 92.0768 55.625 90.0977 54.9219C87.9753 54.1536 86.4844 53.4961 85.625 52.9492C84.7656 52.3893 84.1146 51.7643 83.6719 51.0742C83.2422 50.3711 83.0273 49.5182 83.0273 48.5156C83.0273 46.9271 83.6914 45.6706 85.0195 44.7461C86.3607 43.8216 88.2292 43.3594 90.625 43.3594C92.9167 43.3594 95.0911 43.7891 97.1484 44.6484L96.4258 46.4062C94.3424 45.5469 92.4089 45.1172 90.625 45.1172C88.8932 45.1172 87.5195 45.4036 86.5039 45.9766C85.4883 46.5495 84.9805 47.3438 84.9805 48.3594C84.9805 49.4661 85.3711 50.3516 86.1523 51.0156C86.9466 51.6797 88.4896 52.4219 90.7812 53.2422C92.6953 53.9323 94.0885 54.5573 94.9609 55.1172C95.8333 55.6641 96.4844 56.2891 96.9141 56.9922C97.3568 57.6953 97.5781 58.5221 97.5781 59.4727ZM108.652 63.6719C109.876 63.6719 110.944 63.5677 111.855 63.3594V64.9219C110.918 65.2344 109.837 65.3906 108.613 65.3906C106.738 65.3906 105.352 64.8893 104.453 63.8867C103.568 62.8841 103.125 61.3086 103.125 59.1602V45.4492H99.9805V44.3164L103.125 43.4375L104.102 38.6328H105.098V43.7695H111.328V45.4492H105.098V58.8867C105.098 60.5143 105.384 61.7188 105.957 62.5C106.53 63.2812 107.428 63.6719 108.652 63.6719Z" fill="black"/>
<path d="M126.061 45.1514H128.502C130.895 45.1514 132.66 44.7526 133.8 43.9551C134.939 43.1576 135.509 41.9043 135.509 40.1953C135.509 38.5026 134.923 37.2982 133.751 36.582C132.595 35.8659 130.797 35.5078 128.355 35.5078H126.061V45.1514ZM126.061 51.3037V65H118.492V29.3066H128.893C133.743 29.3066 137.332 30.1937 139.659 31.9678C141.987 33.7256 143.15 36.403 143.15 40C143.15 42.0996 142.573 43.9714 141.417 45.6152C140.261 47.2428 138.626 48.5205 136.51 49.4482C141.881 57.4723 145.38 62.6562 147.008 65H138.609L130.089 51.3037H126.061ZM180.553 29.3066V52.4023C180.553 55.0391 179.959 57.3503 178.771 59.3359C177.599 61.3216 175.898 62.8434 173.668 63.9014C171.438 64.9593 168.801 65.4883 165.758 65.4883C161.168 65.4883 157.604 64.3164 155.064 61.9727C152.525 59.6126 151.256 56.39 151.256 52.3047V29.3066H158.8V51.1572C158.8 53.9079 159.353 55.9261 160.46 57.2119C161.567 58.4977 163.398 59.1406 165.953 59.1406C168.427 59.1406 170.217 58.4977 171.324 57.2119C172.447 55.9098 173.009 53.8753 173.009 51.1084V29.3066H180.553ZM211.144 65L208.556 56.5039H195.543L192.955 65H184.801L197.398 29.1602H206.651L219.298 65H211.144ZM206.749 50.1562C204.356 42.4577 203.006 38.1038 202.696 37.0947C202.403 36.0856 202.192 35.2881 202.062 34.7021C201.524 36.7855 199.986 41.9368 197.447 50.1562H206.749Z" fill="black"/>
<path d="M224.922 61.6846C224.922 60.5908 225.241 59.6794 225.879 58.9502C226.54 58.221 227.52 57.8564 228.818 57.8564C230.117 57.8564 231.097 58.221 231.758 58.9502C232.441 59.6794 232.783 60.5908 232.783 61.6846C232.783 62.7327 232.441 63.61 231.758 64.3164C231.097 65.0228 230.117 65.376 228.818 65.376C227.52 65.376 226.54 65.0228 225.879 64.3164C225.241 63.61 224.922 62.7327 224.922 61.6846Z" fill="#EF3131"/>
</svg>
