<svg width="328" height="167" viewBox="0 0 328 167" fill="none" xmlns="http://www.w3.org/2000/svg">
<rect width="328" height="167" fill="#0D0C0C"/>
<path d="M74.0781 107V93.0742C74.0781 91.0039 73.6745 89.4935 72.8672 88.543C72.0599 87.5924 70.8229 87.1172 69.1562 87.1172C66.9818 87.1172 65.3737 87.7161 64.332 88.9141C63.2904 90.112 62.7695 91.9935 62.7695 94.5586V107H60.7969V92.4883C60.7969 88.9076 59.1562 87.1172 55.875 87.1172C53.6484 87.1172 52.0273 87.7682 51.0117 89.0703C49.9961 90.3594 49.4883 92.4297 49.4883 95.2812V107H47.5547V85.7695H49.1562L49.5664 88.6797H49.6836C50.2695 87.625 51.1029 86.8112 52.1836 86.2383C53.2643 85.6523 54.4557 85.3594 55.7578 85.3594C59.1042 85.3594 61.2526 86.6159 62.2031 89.1289H62.2812C62.9714 87.918 63.8958 86.987 65.0547 86.3359C66.2266 85.6849 67.5547 85.3594 69.0391 85.3594C71.3568 85.3594 73.0951 85.9779 74.2539 87.2148C75.4128 88.4518 75.9922 90.418 75.9922 93.1133V107H74.0781ZM91.4414 107.391C88.3555 107.391 85.9466 106.44 84.2148 104.539C82.4961 102.638 81.6367 99.9753 81.6367 96.5508C81.6367 93.1654 82.4701 90.457 84.1367 88.4258C85.8034 86.3815 88.0495 85.3594 90.875 85.3594C93.375 85.3594 95.3477 86.2318 96.793 87.9766C98.2383 89.7214 98.9609 92.0911 98.9609 95.0859V96.6484H83.668C83.694 99.5651 84.3711 101.792 85.6992 103.328C87.0404 104.865 88.9544 105.633 91.4414 105.633C92.6523 105.633 93.7135 105.548 94.625 105.379C95.5495 105.21 96.7148 104.845 98.1211 104.285V106.043C96.9232 106.564 95.8164 106.915 94.8008 107.098C93.7852 107.293 92.6654 107.391 91.4414 107.391ZM90.875 87.0781C88.8307 87.0781 87.1901 87.7552 85.9531 89.1094C84.7161 90.4505 83.9935 92.3906 83.7852 94.9297H96.9102C96.9102 92.4688 96.3763 90.5482 95.3086 89.168C94.2409 87.7747 92.763 87.0781 90.875 87.0781ZM119.625 107V93.2305C119.625 91.0951 119.176 89.5456 118.277 88.582C117.379 87.6055 115.986 87.1172 114.098 87.1172C111.559 87.1172 109.697 87.7617 108.512 89.0508C107.34 90.3268 106.754 92.4036 106.754 95.2812V107H104.82V85.7695H106.461L106.832 88.6797H106.949C108.329 86.4661 110.784 85.3594 114.312 85.3594C119.13 85.3594 121.539 87.944 121.539 93.1133V107H119.625ZM141.578 101.473C141.578 103.374 140.855 104.839 139.41 105.867C137.965 106.883 135.914 107.391 133.258 107.391C130.419 107.391 128.167 106.954 126.5 106.082V103.992C128.635 105.06 130.888 105.594 133.258 105.594C135.354 105.594 136.943 105.249 138.023 104.559C139.117 103.855 139.664 102.924 139.664 101.766C139.664 100.698 139.228 99.7995 138.355 99.0703C137.496 98.3411 136.077 97.625 134.098 96.9219C131.975 96.1536 130.484 95.4961 129.625 94.9492C128.766 94.3893 128.115 93.7643 127.672 93.0742C127.242 92.3711 127.027 91.5182 127.027 90.5156C127.027 88.9271 127.691 87.6706 129.02 86.7461C130.361 85.8216 132.229 85.3594 134.625 85.3594C136.917 85.3594 139.091 85.7891 141.148 86.6484L140.426 88.4062C138.342 87.5469 136.409 87.1172 134.625 87.1172C132.893 87.1172 131.52 87.4036 130.504 87.9766C129.488 88.5495 128.98 89.3438 128.98 90.3594C128.98 91.4661 129.371 92.3516 130.152 93.0156C130.947 93.6797 132.49 94.4219 134.781 95.2422C136.695 95.9323 138.089 96.5573 138.961 97.1172C139.833 97.6641 140.484 98.2891 140.914 98.9922C141.357 99.6953 141.578 100.522 141.578 101.473ZM152.652 105.672C153.876 105.672 154.944 105.568 155.855 105.359V106.922C154.918 107.234 153.837 107.391 152.613 107.391C150.738 107.391 149.352 106.889 148.453 105.887C147.568 104.884 147.125 103.309 147.125 101.16V87.4492H143.98V86.3164L147.125 85.4375L148.102 80.6328H149.098V85.7695H155.328V87.4492H149.098V100.887C149.098 102.514 149.384 103.719 149.957 104.5C150.53 105.281 151.428 105.672 152.652 105.672Z" fill="white"/>
<path d="M170.061 87.1514H172.502C174.895 87.1514 176.66 86.7526 177.8 85.9551C178.939 85.1576 179.509 83.9043 179.509 82.1953C179.509 80.5026 178.923 79.2982 177.751 78.582C176.595 77.8659 174.797 77.5078 172.355 77.5078H170.061V87.1514ZM170.061 93.3037V107H162.492V71.3066H172.893C177.743 71.3066 181.332 72.1937 183.659 73.9678C185.987 75.7256 187.15 78.403 187.15 82C187.15 84.0996 186.573 85.9714 185.417 87.6152C184.261 89.2428 182.626 90.5205 180.51 91.4482C185.881 99.4723 189.38 104.656 191.008 107H182.609L174.089 93.3037H170.061ZM224.553 71.3066V94.4023C224.553 97.0391 223.959 99.3503 222.771 101.336C221.599 103.322 219.898 104.843 217.668 105.901C215.438 106.959 212.801 107.488 209.758 107.488C205.168 107.488 201.604 106.316 199.064 103.973C196.525 101.613 195.256 98.39 195.256 94.3047V71.3066H202.8V93.1572C202.8 95.9079 203.353 97.9261 204.46 99.2119C205.567 100.498 207.398 101.141 209.953 101.141C212.427 101.141 214.217 100.498 215.324 99.2119C216.447 97.9098 217.009 95.8753 217.009 93.1084V71.3066H224.553ZM255.144 107L252.556 98.5039H239.543L236.955 107H228.801L241.398 71.1602H250.651L263.298 107H255.144ZM250.749 92.1562C248.356 84.4577 247.006 80.1038 246.696 79.0947C246.403 78.0856 246.192 77.2881 246.062 76.7021C245.524 78.7855 243.986 83.9368 241.447 92.1562H250.749Z" fill="white"/>
<path d="M268.922 103.685C268.922 102.591 269.241 101.679 269.879 100.95C270.54 100.221 271.52 99.8564 272.818 99.8564C274.117 99.8564 275.097 100.221 275.758 100.95C276.441 101.679 276.783 102.591 276.783 103.685C276.783 104.733 276.441 105.61 275.758 106.316C275.097 107.023 274.117 107.376 272.818 107.376C271.52 107.376 270.54 107.023 269.879 106.316C269.241 105.61 268.922 104.733 268.922 103.685Z" fill="#EF3131"/>
</svg>
